<?xml version="1.0" encoding="UTF-8"?>
<svg id="Layer_1" data-name="Layer 1" xmlns="http://www.w3.org/2000/svg" xmlns:xlink="http://www.w3.org/1999/xlink" viewBox="0 0 192 192">
  <defs>
    <style>
      .cls-1, .cls-2 {
        stroke-width: 3px;
      }

      .cls-1, .cls-2, .cls-3, .cls-4 {
        stroke-miterlimit: 10;
      }

      .cls-1, .cls-3 {
        stroke: #000;
      }

      .cls-2, .cls-4 {
        fill: #32a852;
        stroke: #32a852;
      }

      .cls-3 {
        fill: #1d1d1d;
        stroke-width: 5px;
      }

      .cls-4 {
        stroke-width: .75px;
      }

      .cls-5 {
        fill: #ebebeb;
        filter: url(#drop-shadow-1);
      }
    </style>
    <filter id="drop-shadow-1" filterUnits="userSpaceOnUse">
      <feOffset dx="0" dy="4"/>
      <feGaussianBlur result="blur" stdDeviation="1"/>
      <feFlood flood-color="#6d6d6d" flood-opacity=".75"/>
      <feComposite in2="blur" operator="in"/>
      <feComposite in="SourceGraphic"/>
    </filter>
  </defs>
  <circle class="cls-5" cx="96.2" cy="94.15" r="91.61"/>
  <g>
    <path class="cls-3" d="m46.62,103.66c0-16.48,0-32.97,0-49.45,0-4.54,3.23-7.94,7.63-8.33,2.41-.22,4.83-.3,7.22-.45.14-1.85.12-3.75.45-5.6.57-3.2,2.68-5.04,5.74-5.97,4.26-1.3,9.35,1.73,10.14,5.32.34,1.55.42,3.17.49,4.77.06,1.17.3,1.78,1.7,1.77,4.51-.04,9.02.04,13.53.16,1.24.03,1.58-.38,1.53-1.56-.09-2.45-.17-4.89,1.4-7.06,2.07-2.85,4.86-4.06,8.23-3.47,3.26.58,5.85,2.36,6.65,5.8.35,1.51.22,3.16.12,4.73-.08,1.16.2,1.57,1.38,1.55,4.65-.07,9.31-.2,13.96-.1,1.29.03,1.41-.37,1.42-1.4.02-1.56.03-3.15.31-4.68.59-3.24,4.22-6.02,7.5-6,3.76.02,6.68,1.31,8.17,4.76.66,1.53.62,3.4.69,5.13.11,2.54-.23,2.24,2.37,2.29,2.04.04,4.1.03,6.12.31,3.74.51,5.89,3.55,6.51,6.63.27,1.34.27,2.75.27,4.13.02,26.71.02,53.42,0,80.12,0,2.89-.59,5.67-2.79,7.68-1.67,1.53-3.81,2.31-6.16,2.31-18.45,0-36.9,0-55.35-.01-6.82,0-11.54-.04-18.36-.05,0-.52,1.04-1.06,1.14-1.56.12-.64,1.4-1.87,1.4-1.87,0,0,46.57.04,71.07.03,2.53,0,4.25-1.23,5.02-3.69.29-.93.47-1.93.47-2.9.02-20.13.02-40.26,0-60.39,0-1.98-.18-3.96-.28-6.05H50.16c0,3.27,0,6.44,0,9.61,0,7.8-.02,15.61-.03,23.41-2.31,0-.55.05-3.51.09Zm31.72-53.44c0,1.32-.05,2.42,0,3.51.27,5.33-4.25,8.3-8.41,8.6-2.97.21-5.25-1.35-6.92-3.83-1.44-2.14-1.5-4.51-1.4-6.94.03-.77-.08-1.31-1.06-1.29-2.11.04-4.23-.09-6.34.05-2.07.14-4.08,2.37-4.1,4.47-.05,3.65.02,7.29.04,10.94,0,.7,0,1.39,0,2.05h106.33c0-4.36.09-8.62-.03-12.88-.08-2.82-2.03-4.3-4.15-4.55-2.4-.28-4.86-.06-7.36-.06,0,1.26,0,2.36,0,3.45-.05,5.15-3.9,8.38-8.55,8.62-3.51.19-7.13-2.83-7.84-6.48-.35-1.79-.33-3.66-.49-5.58h-16.13c-.15,1.76-.23,3.41-.45,5.05-.58,4.34-3.81,6.43-7.21,6.99-3.7.61-7.52-1.91-8.59-5.59-.49-1.68-.49-3.52-.6-5.3-.05-.85-.29-1.22-1.18-1.18-1,.04-2.01-.04-3.02-.05-4.12,0-8.25,0-12.55,0Zm53.19-1.86h.15c0,1.11-.04,2.22.01,3.32.05,1.13.09,2.27.31,3.37.45,2.29,2.49,3.98,4.54,3.88,2.6-.12,4.83-1.97,4.92-4.47.15-4.17.11-8.34.01-12.51-.05-1.91-2.03-3.66-3.91-3.78-3.06-.19-5.15.9-5.51,3.22-.36,2.29-.36,4.64-.51,6.96Zm-56.59.05s0,0,.01,0c0-1.92.07-3.84-.01-5.75-.13-3.13-1.89-4.45-5.55-4.52-1.8-.03-4.21,1.74-4.3,4.71-.11,3.59-.05,7.19-.02,10.78.03,2.8,1.93,4.99,4.28,5.02,3.46.04,5.48-1.72,5.57-4.93.05-1.77,0-3.55,0-5.32Zm23.58.22s0,0-.01,0c0,2.21,0,4.41,0,6.62,0,.17.04.36.13.5,1.93,3.35,2.78,3.13,5.74,2.88,1.58-.13,3.6-2.05,3.65-3.46.14-4.1.26-8.2.26-12.31,0-2.69-1.93-5-5.6-4.72-2.51.19-4.15,1.94-4.17,4.88-.01,1.87,0,3.74,0,5.61Z"/>
    <path class="cls-2" d="m86.84,128.49c0,12.91-11.37,25.83-26.39,25.83-14.72,0-26.6-10.84-26.6-25.83,0-16.44,9.79-27.51,26.38-27.51,14.41,0,26.62,12.64,26.61,27.51Zm-3.32-.97c.25-13.05-10.61-23.39-23.57-23.26-13,.13-22.55,10.78-23,22.2-.54,13.88,10.56,24.43,23.45,24.27,12.5-.16,23.14-9.88,23.12-23.21Z"/>
    <path class="cls-1" d="m70.14,93.07c-1.39,0-2.79.01-4.18,0-2.54-.03-4.29-1.67-4.34-4.19-.06-2.83-.04-5.67,0-8.5.03-2.22,1.87-4,4.06-4.01,2.55-.01,5.09.07,7.64-.03,3.34-.13,5.12,1.76,5.19,4.96.06,2.96-.08,5.93-.2,8.9-.04,1.09-1.96,2.88-3.41,2.89-1.58,0-3.17,0-4.75,0,0,0,0,0,0-.01Zm-4.77-12.96v9.51c2.98,0,5.83.03,8.67-.05.29,0,.78-.66.79-1.03.09-2.44.13-4.89.06-7.33-.01-.38-.69-1.05-1.08-1.06-2.77-.09-5.55-.05-8.44-.05Z"/>
    <path class="cls-1" d="m136.56,137.99c-1.58,0-3.16.04-4.74-.01-1.82-.06-3.55-1.88-3.55-3.68,0-2.73.01-5.46.04-8.19.01-1.45.09-2.99,1.47-3.81.87-.53,1.99-.9,3-.91,2.95-.04,5.9.05,8.84.27,1.89.14,3.17,1.23,3.27,3.08.19,3.38.26,6.79-.05,10.15-.18,1.92-2.33,3.27-3.97,3.16-1.43-.1-2.88-.02-4.31-.02,0-.01,0-.03,0-.04Zm5.02-3.4c0-3.05.05-5.63-.04-8.21-.02-.44-.59-1.23-.93-1.24-2.85-.1-5.71-.06-8.94-.06,0,2.8.04,5.45-.02,8.1-.03,1.04.26,1.45,1.36,1.43,2.79-.06,5.59-.02,8.58-.02Z"/>
    <path class="cls-1" d="m136.44,93.1c-1.3,0-2.59.02-3.89,0-2.79-.05-4.1-1.36-4.13-4.21-.04-2.97-.02-5.94,0-8.91,0-2,1.8-3.58,3.65-3.58,3.24,0,6.47.1,9.71.28,1.58.08,3.05,1.36,3.12,2.93.15,3.52.15,7.06-.02,10.58-.07,1.34-2,2.97-3.53,2.91-1.63-.06-3.26-.01-4.89-.01,0,0,0,0,0,.01Zm-4.93-3.62c.55.13,1.16.42,1.78.41,2.42-.04,4.84-.12,7.26-.3.37-.03.98-.65.99-1.01.09-2.44.09-4.88,0-7.32-.01-.39-.6-1.09-.94-1.1-2.85-.09-5.71-.05-8.57-.05-.17,3.13-.34,6.09-.52,9.38Z"/>
    <path class="cls-1" d="m95.05,107.01c0-1.15.09-2.31-.02-3.45-.22-2.36,1.28-4.68,4.39-4.68,2.95,0,5.91.12,8.86.28,1.47.08,3.02,1.25,3.08,2.62.17,3.73.16,7.47.09,11.2-.02,1.11-1.86,2.55-3.2,2.58-3.17.08-6.34.12-9.5-.04-2.18-.11-3.64-1.87-3.68-4.05-.03-1.49,0-2.97,0-4.46,0,0,0,0-.01,0Zm12.87,5.05c.13-2.81.3-5.56.35-8.3,0-.38-.52-1.08-.83-1.1-2.61-.18-5.23-.28-7.84-.29-.36,0-1.03.58-1.04.91-.08,2.91-.05,5.82-.05,8.79h9.4Z"/>
    <path class="cls-1" d="m95.05,129.57c0-1.05.07-2.11-.01-3.16-.24-2.96,1.17-4.67,3.84-4.9,2.95-.25,5.98-.47,8.88-.04,3.73.54,3.78,1.83,3.97,4.89.18,2.88-.09,5.8-.23,8.69-.07,1.44-1.88,2.93-3.61,2.96-2.97.06-5.94.08-8.92.04-2.1-.03-3.84-1.88-3.91-4.02-.03-.77-.01-1.53-.02-2.3,0-.72,0-1.44,0-2.16Zm3.53,5.03c2.9,0,5.64.03,8.37-.04.36,0,1.01-.47,1.03-.76.17-2.56.26-5.13.28-7.7,0-.34-.46-.97-.71-.97-3-.07-6-.04-8.97-.04v9.51Z"/>
    <path class="cls-1" d="m136.58,115.6c-1.44,0-2.9-.14-4.32.03-2.14.27-4.11-2.4-3.97-4.37.18-2.53,0-5.08.03-7.63.05-3.21.97-4.48,4.04-4.68,3.09-.2,6.21,0,9.31.21,1.78.12,3.19,1.58,3.25,3.33.11,3.2.14,6.4-.01,9.6-.11,2.21-1.62,3.43-3.86,3.5-1.49.04-2.98,0-4.46,0Zm-4.9-13.07c0,2.97-.03,5.75.04,8.53,0,.36.51,1,.8,1.01,2.78.08,5.57.07,8.35,0,.3,0,.86-.53.85-.81-.02-2.47-.21-4.94-.21-7.4,0-1.11-.3-1.42-1.43-1.53-2.29-.21-4.56.04-6.84.07-.47,0-.94.08-1.56.13Z"/>
    <path class="cls-1" d="m103.33,93.07c-1.34,0-2.69,0-4.03,0-2.42,0-4.19-1.69-4.23-4.12-.03-2.69.02-5.38-.03-8.06-.04-2.22,1.3-4.44,4.31-4.51,2.69-.06,5.38-.05,8.06,0,2.32.04,4.04,1.89,4.08,4.16.05,2.57.27,5.14.26,7.71,0,1.89-.46,3.68-2.48,4.51-.46.19-.99.3-1.49.32-1.49.04-2.98.01-4.46.01,0,0,0-.01,0-.02Zm-4.81-12.96c0,3.04.01,5.91,0,8.77,0,.84.38,1.07,1.16,1.04,2.47-.12,4.94-.2,7.41-.29.93-.03,1.23-.57,1.22-1.41,0-2.35-.01-4.7.02-7.05.01-.82-.35-1.08-1.13-1.08-2.82.02-5.65,0-8.67,0Z"/>
    <path class="cls-4" d="m78.5,127.61c.2,10.33-8.49,18.35-18.15,18.16-9.81-.19-18.26-7.6-18.18-18.7.06-9.62,7.93-18.21,18.96-17.77,9.21.37,17.59,7.59,17.37,18.32Zm-3.05-.03c.31-7.36-6.04-15.98-16.81-15.04-7.1.62-13.37,7.31-13.42,14.63-.06,8.85,7,15.39,14.94,15.35,8.54-.04,15.31-6.35,15.29-14.95Z"/>
    <path class="cls-4" d="m62.11,121.78c-.05,1.07.23,1.85,1.22,2.53,1.68,1.16,1.86,3.38.85,5.45-.78,1.61-3.46,2.55-5.12,1.92-1.11-.42-2.14-.46-3.19.31-.7.51-1.56.81-2.35,1.19-.77.37-1.46.12-1.8-.54-.37-.72-.43-1.59.39-2.14.97-.64,1.97-1.24,3-1.77.66-.34,1.03-.71,1.04-1.53.02-1.47.79-2.56,1.95-3.46.42-.32.78-.98.8-1.49.08-2.15.06-4.31,0-6.47-.02-1.01.51-1.39,1.37-1.38.84,0,1.6.32,1.68,1.32.11,1.43.17,5.47.14,6.06Zm-1.62,4.06c-.62.67-1.32,1.19-1.24,1.39.22.52.72,1.15,1.22,1.26.32.07,1.05-.66,1.16-1.13.08-.33-.59-.83-1.14-1.52Z"/>
  </g>
</svg>