<svg width="15" height="15" viewBox="0 0 15 15" fill="none" xmlns="http://www.w3.org/2000/svg">
<path d="M13.6465 5.87156C13.4109 5.62531 13.1671 5.37156 13.0753 5.14844C12.9903 4.94406 12.9853 4.60531 12.9803 4.27719C12.9709 3.66719 12.9609 2.97594 12.4803 2.49531C11.9996 2.01469 11.3084 2.00469 10.6984 1.99531C10.3703 1.99031 10.0315 1.98531 9.82715 1.90031C9.60465 1.80844 9.35027 1.56469 9.10402 1.32906C8.67277 0.914687 8.18277 0.445312 7.53027 0.445312C6.87777 0.445312 6.3884 0.914687 5.95652 1.32906C5.71027 1.56469 5.45652 1.80844 5.2334 1.90031C5.03027 1.98531 4.69027 1.99031 4.36215 1.99531C3.75215 2.00469 3.0609 2.01469 2.58027 2.49531C2.09965 2.97594 2.09277 3.66719 2.08027 4.27719C2.07527 4.60531 2.07027 4.94406 1.98527 5.14844C1.8934 5.37094 1.64965 5.62531 1.41402 5.87156C0.999648 6.30281 0.530273 6.79281 0.530273 7.44531C0.530273 8.09781 0.999648 8.58719 1.41402 9.01906C1.64965 9.26531 1.8934 9.51906 1.98527 9.74219C2.07027 9.94656 2.07527 10.2853 2.08027 10.6134C2.08965 11.2234 2.09965 11.9147 2.58027 12.3953C3.0609 12.8759 3.75215 12.8859 4.36215 12.8953C4.69027 12.9003 5.02902 12.9053 5.2334 12.9903C5.4559 13.0822 5.71027 13.3259 5.95652 13.5616C6.38777 13.9759 6.87777 14.4453 7.53027 14.4453C8.18277 14.4453 8.67215 13.9759 9.10402 13.5616C9.35027 13.3259 9.60402 13.0822 9.82715 12.9903C10.0315 12.9053 10.3703 12.9003 10.6984 12.8953C11.3084 12.8859 11.9996 12.8759 12.4803 12.3953C12.9609 11.9147 12.9709 11.2234 12.9803 10.6134C12.9853 10.2853 12.9903 9.94656 13.0753 9.74219C13.1671 9.51969 13.4109 9.26531 13.6465 9.01906C14.0609 8.58781 14.5303 8.09781 14.5303 7.44531C14.5303 6.79281 14.0609 6.30344 13.6465 5.87156ZM10.384 6.29906L6.88402 9.79906C6.83759 9.84555 6.78244 9.88243 6.72174 9.90759C6.66104 9.93275 6.59598 9.94571 6.53027 9.94571C6.46457 9.94571 6.3995 9.93275 6.3388 9.90759C6.2781 9.88243 6.22296 9.84555 6.17652 9.79906L4.67652 8.29906C4.5827 8.20524 4.53 8.07799 4.53 7.94531C4.53 7.81263 4.5827 7.68538 4.67652 7.59156C4.77034 7.49774 4.89759 7.44503 5.03027 7.44503C5.16296 7.44503 5.2902 7.49774 5.38402 7.59156L6.53027 8.73844L9.67652 5.59156C9.72298 5.54511 9.77813 5.50826 9.83883 5.48312C9.89952 5.45797 9.96458 5.44503 10.0303 5.44503C10.096 5.44503 10.161 5.45797 10.2217 5.48312C10.2824 5.50826 10.3376 5.54511 10.384 5.59156C10.4305 5.63802 10.4673 5.69317 10.4925 5.75386C10.5176 5.81456 10.5306 5.87961 10.5306 5.94531C10.5306 6.01101 10.5176 6.07606 10.4925 6.13676C10.4673 6.19746 10.4305 6.25261 10.384 6.29906Z" fill="#44D464"/>
</svg>
