<?xml version="1.0" encoding="UTF-8"?>
<svg id="Layer_1" data-name="Layer 1" xmlns="http://www.w3.org/2000/svg" xmlns:xlink="http://www.w3.org/1999/xlink" viewBox="0 0 192 192">
  <defs>
    <style>
      .cls-1, .cls-2 {
        fill: #3dc662;
      }

      .cls-2 {
        stroke: #3dc662;
      }

      .cls-2, .cls-3 {
        stroke-miterlimit: 10;
        stroke-width: 2px;
      }

      .cls-3 {
        stroke: #000;
      }

      .cls-4 {
        fill: #ebebeb;
        filter: url(#drop-shadow-1);
      }
    </style>
    <filter id="drop-shadow-1" filterUnits="userSpaceOnUse">
      <feOffset dx="0" dy="4"/>
      <feGaussianBlur result="blur" stdDeviation="1"/>
      <feFlood flood-color="#6d6d6d" flood-opacity=".75"/>
      <feComposite in2="blur" operator="in"/>
      <feComposite in="SourceGraphic"/>
    </filter>
  </defs>
  <circle class="cls-4" cx="96.2" cy="94.15" r="91.61"/>
  <g>
    <path class="cls-3" d="m73.76,96.22c1.66,1.13,3.33,2.26,4.99,3.4,2.91,1.99,5.81,3.98,8.71,5.98.56.38,1.11.79,1.6,1.26,1.39,1.36,2.84,2.67,4.08,4.15,1.24,1.49,2.32,3.12,3.36,4.77.65,1.02,1.1,2.17,1.62,3.27.79,1.64,1.56,3.29,2.34,4.94.72,1.52,1.44,3.03,2.15,4.54.7,1.47,1.39,2.95,2.09,4.42.6,1.25,1.27,2.46,1.8,3.73.76,1.81,2.27,2.09,3.78,1.7,2.17-.57,4.27-1.38,6.09-2.71,1.1-.8,2.11-1.76,3.01-2.78.9-1.02,1.68-2.16,2.37-3.33,1.11-1.89,1.8-3.95,2.02-6.15.07-.69.21-1.38.24-2.07.09-1.98-.33-3.9-.79-5.82-.72-2.99-1.38-6-2.07-9-.22-.95-.45-1.9-.67-2.85-.05-.2-.07-.4-.11-.62.77,0,1.5,0,2.22,0,8.71,0,17.42,0,26.14,0,1.86,0,3.66-.26,5.39-1.03,1.87-.83,3.35-2.09,4.43-3.8,1.1-1.75,1.73-3.67,1.62-5.77-.13-2.28-.83-4.38-2.33-6.13-.64-.74-1.41-1.38-2.17-2.01-.27-.22-.29-.3-.09-.56,1.38-1.82,2.18-3.9,2.07-6.17-.16-3.26-1.41-6.04-4.16-8-.15-.11-.27-.25-.42-.36-.13-.09-.27-.15-.44-.24,1.97-2.64,2.67-5.54,1.89-8.72-.77-3.16-2.73-5.4-5.5-6.8.39-.94.77-1.81,1.13-2.69.87-2.12.78-4.23.06-6.38-.79-2.36-2.24-4.2-4.37-5.44-.95-.55-2.05-.84-3.08-1.26-.21-.09-.38-.24-.58-.37-12.17,0-24.35,0-36.52,0-2.54,0-4.71.45-6.52,1.21-1.98.48-3.94,1.06-5.89,1.68-1.48.47-2.95.99-4.38,1.6-1.53.65-3.02,1.41-4.5,2.18-.74.39-3.77,2.25-4.55,2.75-1.9,1.22-3.77,2.49-5.65,3.74-.01.33-.03.66-.04,1-.04,1.14-.1,2.28-.1,3.42,0,.7.08,1.39.13,2.09,1.99-1.3,3.99-2.59,5.98-3.9,1.3-.86,2.58-1.77,3.89-2.62.88-.57,1.78-1.13,2.71-1.62,1.67-.89,3.35-1.76,5.11-2.47,2.57-1.03,5.19-1.83,7.89-2.43.44-.1.9-.08,1.34-.16,1.26-.23,2.5-.57,3.76-.7,1.77-.17,3.55-.25,5.32-.25,10.04-.02,20.09-.02,30.13-.01,1.92,0,3.35.97,4.39,2.5.64.94.8,2.04.5,3.16-.68,2.55-2.11,3.6-4.58,3.85-1.46.14-2.94,1.22-2.8,2.98.02.23-.05.48-.07.68.18.25.34.48.52.7.63.73,1.36,1.21,2.38,1.2,1.04-.01,2.08.05,3.11.08,0,0,0,0,0,0,.08-.01.15-.03.23-.04.1,0,.19,0,.29,0,.59.07,1.21.03,1.75.22,1.66.57,2.73,1.73,3.17,3.46.23.92.03,1.77-.18,2.69-.33,1.42-2.48,3.03-4.04,3.08-.84.03-1.64.24-2.25.85-.58.58-.86,1.26-.8,2.14.05.78.4,1.34.91,1.84.63.63,1.47.72,2.3.77,1.11.07,2.26-.06,3.33.16,2.45.5,4.23,3.08,3.62,5.51-.45,1.83-2.08,3.63-4.23,3.74-1.26.07-2.38.51-2.94,1.88-.63,1.54.19,3.34,1.84,3.57,1.04.15,2.11.11,3.16.14,1.26.04,2.38.49,3.28,1.34,1.32,1.25,1.73,2.86,1.33,4.6-.31,1.37-1.15,2.43-2.45,3.07-1.02.5-2.12.53-3.23.53-13.61,0-27.22.01-40.83,0-1.31,0-2.29.51-2.99,1.6-.48.75-.26,2.06.31,2.76.78.95,1.81,1.15,2.92,1.16,1.96.02,3.92.02,5.88-.02.51,0,.71.16.82.65.88,3.85,1.8,7.69,2.7,11.54.6,2.55,1.19,5.09.79,7.75-.36,2.36-1.26,4.49-2.94,6.16-1.21,1.2-2.64,2.18-3.99,3.23-.48.37-.88.23-1.14-.34-1.16-2.48-2.31-4.98-3.48-7.45-1.15-2.42-2.29-4.84-3.5-7.23-.96-1.9-1.89-3.83-3.03-5.62-1.09-1.7-2.35-3.32-3.67-4.84-1.26-1.45-2.67-2.79-4.1-4.08-.99-.89-2.14-1.6-3.2-2.41-.5-.38-.93-.84-1.44-1.2-.63-.43-1.32-.78-1.97-1.19-.34-.22-.64-.51-.98-.74-1-.67-2.02-1.32-3.02-1.99-.74-.49-1.47-.99-2.2-1.48-.45-.31-.89-.63-1.36-.91-.86-.51-1.85-.82-2.5-1.65-.36-.46-.8-.72-1.4-.65-.33.21-.42.51-.39.89.06.82.09,1.64.11,2.47,0,.22-.05.44-.09.65-.11.55-.24,1.09-.35,1.64Z"/>
    <path class="cls-2" d="m74.07,61.26c0,9.14,0,18.27.02,27.41,0,.63.25,1.26.39,1.89-.33.21-.42.51-.39.89.06.82.09,1.64.11,2.47,0,.22-.05.44-.09.65-.11.55-.24,1.09-.35,1.64-.11.22-.25.42-.33.65-.88,2.35-2.47,4.12-4.6,5.4-1.53.92-3.25,1.22-4.99,1.23-5.85.05-11.7.04-17.55.04-3.71,0-7.41,0-11.12-.03-1.15,0-2.03-.52-2.55-1.59-.06-.13-.25-.2-.38-.3,0-20.72,0-41.44,0-62.16.05-.03.14-.05.16-.09.38-.95,1.19-1.48,1.97-2.04h31.14c.47,0,.34,0,.79.33,1.46.3,2.43.94,3.68,1.8,1.89,1.29,2.94,3.07,3.61,5.09.4,1.22.33,2.59.45,3.9.06.68-.01,5.31-.02,6.46,0,.7.07,5.42.07,6.36Zm-36.27-16.62c0,17.24,0,34.48,0,51.71,0,.4-.02.79-.04,1.19-.02.38.14.5.52.5,8.44-.02,16.88-.03,25.33-.05,1.48,0,2.84-.37,3.83-1.59.67-.82,1.04-1.74,1.04-2.81,0-1.7,0-3.39,0-5.09.02-10.2.04-20.41.05-30.61,0-1.77-.04-3.54-.05-5.31,0-1.78.03-3.57,0-5.35-.03-1.38-.62-2.51-1.7-3.4-.9-.74-1.98-.98-3.08-.98-8.44-.03-16.88-.02-25.33-.02-.19,0-.37,0-.67,0,.04.66.1,1.23.1,1.81Z"/>
    <path class="cls-1" d="m87.72,146.73c.15,1.29.59,2.11,1.52,2.57.98.49,1.96.37,2.85-.23.46-.31.85-.73,1.25-1.12,1.46-1.42,2.97-2.79,4.34-4.3.46-.5.65-1.32.79-2.02.19-.93-.87-2.18-1.62-2.5-1.26-.52-2.27-.14-3.17.71-1.38,1.3-2.72,2.63-4.06,3.96-.44.44-.89.89-1.22,1.41-.33.53-.52,1.14-.69,1.51Z"/>
    <path class="cls-1" d="m107.42,154.32c0,1.1-.02,2.21.01,3.31.01.47.14.93.24,1.39.39,1.73,2.98,2.04,4.08,1.19.77-.59,1.13-1.35,1.15-2.25.04-2.46.04-4.92,0-7.38-.02-1.62-1.18-2.73-2.73-2.71-1.54.02-2.77,1.3-2.77,2.87,0,1.19,0,2.38,0,3.56,0,0,0,0,0,0Z"/>
    <path class="cls-1" d="m121.86,141.68c-.08.82.35,1.41.86,1.93,1.7,1.72,3.42,3.42,5.12,5.13,1.29,1.3,3.58,1.03,4.36-.56.57-1.15.5-2.2-.51-3.33-1.09-1.23-2.3-2.35-3.46-3.51-.5-.5-.99-1.02-1.51-1.49-1.69-1.55-3.65-1.18-4.68.88-.14.28-.12.63-.18.95Z"/>
    <path class="cls-1" d="m143.96,57.93c.06.05.11.1.18.13.02,0,.07-.09.11-.13-.1,0-.19,0-.29,0Z"/>
    <path class="cls-1" d="m143.72,57.97l-.03.04s.04,0,.07,0c0-.01-.02-.03-.03-.04,0,0,0,0,0,0Z"/>
    <path class="cls-3" d="m55.77,59.34c1.33.24,2.67-1.15,2.6-2.7-.07-1.58-1.16-2.64-2.92-2.65-1.23,0-2.35.99-2.47,2.65-.09,1.22,1.24,2.98,2.79,2.7Z"/>
  </g>
</svg>