<svg width="38" height="29" viewBox="0 0 38 29" fill="none" xmlns="http://www.w3.org/2000/svg">
<path d="M4.625 24.0833H3.66667C3.15834 24.0833 2.67082 23.8814 2.31138 23.522C1.95193 23.1625 1.75 22.675 1.75 22.1667C1.75 20.6417 2.3558 19.1791 3.43414 18.1008C4.51247 17.0225 5.97501 16.4167 7.5 16.4167H9.41667M9.41667 10.5708C8.7129 10.4269 8.0505 10.1266 7.47846 9.69208C6.90643 9.25758 6.43941 8.70003 6.11196 8.06067C5.7845 7.42131 5.60498 6.71651 5.58668 5.9984C5.56838 5.2803 5.71178 4.56727 6.00625 3.91206C6.30072 3.25686 6.73875 2.67625 7.28791 2.21318C7.83707 1.75011 8.48331 1.41644 9.17884 1.23685C9.87437 1.05726 10.6014 1.03635 11.3061 1.17566C12.0108 1.31497 12.6751 1.61094 13.25 2.04168M33.375 24.0833H34.3333C34.8417 24.0833 35.3292 23.8814 35.6886 23.522C36.0481 23.1625 36.25 22.675 36.25 22.1667C36.25 20.6417 35.6442 19.1791 34.5659 18.1008C33.4875 17.0225 32.025 16.4167 30.5 16.4167H28.5833M28.5833 10.5708C29.2871 10.4269 29.9495 10.1266 30.5215 9.69208C31.0936 9.25758 31.5606 8.70003 31.888 8.06067C32.2155 7.42131 32.395 6.71651 32.4133 5.9984C32.4316 5.2803 32.2882 4.56727 31.9937 3.91206C31.6993 3.25686 31.2613 2.67625 30.7121 2.21318C30.1629 1.75011 29.5167 1.41644 28.8212 1.23685C28.1256 1.05726 27.3986 1.03635 26.6939 1.17566C25.9892 1.31497 25.3249 1.61094 24.75 2.04168M25.7083 27.9167H12.2917C11.7833 27.9167 11.2958 27.7147 10.9364 27.3553C10.5769 26.9959 10.375 26.5083 10.375 26C10.375 24.475 10.9808 23.0125 12.0591 21.9341C13.1375 20.8558 14.6 20.25 16.125 20.25H21.875C23.4 20.25 24.8625 20.8558 25.9409 21.9341C27.0192 23.0125 27.625 24.475 27.625 26C27.625 26.5083 27.4231 26.9959 27.0636 27.3553C26.7042 27.7147 26.2167 27.9167 25.7083 27.9167ZM23.7917 9.70834C23.7917 10.9792 23.2868 12.1979 22.3882 13.0966C21.4896 13.9952 20.2708 14.5 19 14.5C17.7292 14.5 16.5104 13.9952 15.6118 13.0966C14.7132 12.1979 14.2083 10.9792 14.2083 9.70834C14.2083 8.43751 14.7132 7.21873 15.6118 6.32012C16.5104 5.42151 17.7292 4.91668 19 4.91668C20.2708 4.91668 21.4896 5.42151 22.3882 6.32012C23.2868 7.21873 23.7917 8.43751 23.7917 9.70834Z" stroke="#EBEBEB" stroke-width="2" stroke-linecap="round"/>
</svg>
