<svg width="46" height="47" viewBox="0 0 46 47" fill="none" xmlns="http://www.w3.org/2000/svg">
<path d="M23 25.4167C24.525 25.4167 25.9875 24.8109 27.0659 23.7326C28.1442 22.6542 28.75 21.1917 28.75 19.6667C28.75 18.1417 28.1442 16.6792 27.0659 15.6008C25.9875 14.5225 24.525 13.9167 23 13.9167C21.475 13.9167 20.0125 14.5225 18.9341 15.6008C17.8558 16.6792 17.25 18.1417 17.25 19.6667C17.25 21.1917 17.8558 22.6542 18.9341 23.7326C20.0125 24.8109 21.475 25.4167 23 25.4167Z" stroke="#EBEBEB" stroke-width="2" stroke-linecap="round" stroke-linejoin="round"/>
<path d="M34.1167 27.2145H34.0957C35.4792 25.1866 36.2798 22.818 36.4103 20.3665C36.5408 17.9151 35.9962 15.4749 34.8359 13.3115C33.6755 11.1481 31.9438 9.34463 29.8294 8.09734C27.7149 6.85005 25.2988 6.2068 22.8441 6.23763C20.3894 6.26846 17.9902 6.9722 15.9078 8.27221C13.8253 9.57222 12.1395 11.4187 11.0338 13.6105C9.92813 15.8023 9.44502 18.2555 9.63707 20.7028C9.82912 23.1502 10.689 25.498 12.123 27.4905H12.0923L12.3607 27.8183C12.5523 28.0617 12.744 28.2994 12.9357 28.5294L23.0001 40.75L32.8326 28.7747C33.2044 28.3741 33.5494 27.9524 33.8676 27.5116L34.1167 27.2145Z" stroke="#EBEBEB" stroke-width="2" stroke-linecap="round" stroke-linejoin="round"/>
</svg>
