<svg width="34" height="29" viewBox="0 0 34 29" fill="none" xmlns="http://www.w3.org/2000/svg">
<path d="M13.1667 27.9166H3.58341C3.07508 27.9166 2.58757 27.7147 2.22813 27.3553C1.86868 26.9958 1.66675 26.5083 1.66675 26V24.0833C1.66675 22.5583 2.27255 21.0958 3.35088 20.0174C4.42922 18.9391 5.89175 18.3333 7.41675 18.3333H11.2501M30.4167 20.25C30.4167 21.775 29.8109 23.2375 28.7326 24.3158M30.4167 20.25C30.4167 18.725 29.8109 17.2624 28.7326 16.1841M30.4167 20.25H32.3334M28.7326 24.3158C27.6543 25.3942 26.1917 26 24.6667 26M28.7326 24.3158L30.0871 25.6703M24.6667 26C23.1418 26 21.6792 25.3942 20.6009 24.3158M24.6667 26V27.9166M28.7326 16.1841C27.6543 15.1058 26.1917 14.5 24.6667 14.5M28.7326 16.1841L30.0871 14.8296M24.6667 14.5C23.1418 14.5 21.6792 15.1058 20.6009 16.1841M24.6667 14.5V12.5833M20.6009 24.3158C19.5225 23.2375 18.9167 21.775 18.9167 20.25M20.6009 24.3158L19.2464 25.6703M18.9167 20.25C18.9167 18.725 19.5225 17.2624 20.6009 16.1841M18.9167 20.25H17.0001M20.6009 16.1841L19.2464 14.8296M17.0001 6.83331C17.0001 8.35831 16.3943 9.82084 15.3159 10.8992C14.2376 11.9775 12.7751 12.5833 11.2501 12.5833C9.72509 12.5833 8.26255 11.9775 7.18422 10.8992C6.10588 9.82084 5.50008 8.35831 5.50008 6.83331C5.50008 5.30832 6.10588 3.84578 7.18422 2.76745C8.26255 1.68912 9.72509 1.08331 11.2501 1.08331C12.7751 1.08331 14.2376 1.68912 15.3159 2.76745C16.3943 3.84578 17.0001 5.30832 17.0001 6.83331Z" stroke="#EBEBEB" stroke-width="2" stroke-linecap="square" stroke-linejoin="round"/>
</svg>
