<svg width="38" height="29" viewBox="0 0 38 29" fill="none" xmlns="http://www.w3.org/2000/svg">
<path d="M17.0833 8.74998H28.5833M17.0833 14.5H28.5833M17.0833 20.25H28.5833M9.409 8.74998H9.42817M9.409 14.5H9.42817M9.409 20.25H9.42817M3.66667 1.08331H34.3333C34.8417 1.08331 35.3292 1.28525 35.6886 1.64469C36.0481 2.00414 36.25 2.49165 36.25 2.99998V26C36.25 26.5083 36.0481 26.9958 35.6886 27.3553C35.3292 27.7147 34.8417 27.9166 34.3333 27.9166H3.66667C3.15834 27.9166 2.67082 27.7147 2.31138 27.3553C1.95193 26.9958 1.75 26.5083 1.75 26V2.99998C1.75 2.49165 1.95193 2.00414 2.31138 1.64469C2.67082 1.28525 3.15834 1.08331 3.66667 1.08331Z" stroke="#EBEBEB" stroke-width="2" stroke-linecap="round" stroke-linejoin="round"/>
</svg>
