<svg width="34" height="33" viewBox="0 0 34 33" fill="none" xmlns="http://www.w3.org/2000/svg">
<path d="M1.66675 12.6667H32.3334M17.0001 6.91666V1.16666M7.41675 6.91666V1.16666M26.5834 6.91666V1.16666M3.58341 31.8333H30.4167C30.9251 31.8333 31.4126 31.6314 31.772 31.2719C32.1315 30.9125 32.3334 30.425 32.3334 29.9167V6.91666C32.3334 6.40832 32.1315 5.92081 31.772 5.56137C31.4126 5.20192 30.9251 4.99999 30.4167 4.99999H3.58341C3.07508 4.99999 2.58757 5.20192 2.22813 5.56137C1.86868 5.92081 1.66675 6.40832 1.66675 6.91666V29.9167C1.66675 30.425 1.86868 30.9125 2.22813 31.2719C2.58757 31.6314 3.07508 31.8333 3.58341 31.8333ZM9.33341 18.4167H9.35258V18.4358H9.33341V18.4167ZM17.0001 18.4167H17.0192V18.4358H17.0001V18.4167ZM24.6667 18.4167H24.6859V18.4358H24.6667V18.4167ZM9.33341 26.0833H9.35258V26.1025H9.33341V26.0833ZM17.0001 26.0833H17.0192V26.1025H17.0001V26.0833ZM24.6667 26.0833H24.6859V26.1025H24.6667V26.0833Z" stroke="#EBEBEB" stroke-width="2" stroke-linecap="round" stroke-linejoin="round"/>
</svg>
