<?xml version="1.0" encoding="UTF-8"?>
<svg id="Layer_1" data-name="Layer 1" xmlns="http://www.w3.org/2000/svg" xmlns:xlink="http://www.w3.org/1999/xlink" viewBox="0 0 192 192">
  <defs>
    <style>
      .cls-1 {
        fill: #32a852;
      }

      .cls-2 {
        fill: #ebebeb;
        filter: url(#drop-shadow-1);
      }
    </style>
    <filter id="drop-shadow-1" filterUnits="userSpaceOnUse">
      <feOffset dx="0" dy="4"/>
      <feGaussianBlur result="blur" stdDeviation="1"/>
      <feFlood flood-color="#6d6d6d" flood-opacity=".75"/>
      <feComposite in2="blur" operator="in"/>
      <feComposite in="SourceGraphic"/>
    </filter>
  </defs>
  <circle class="cls-2" cx="96.2" cy="94.15" r="91.61"/>
  <g>
    <path d="m61.92,36.05c2.04.23,4.32.31,6.53.76,3.85.78,7.55,2.04,11.02,4,3.37,1.9,6.56,4.01,9.43,6.6,2.07,1.87,4.07,3.8,6.08,5.72.77.73,1.44.68,2.18-.06,1.84-1.84,3.69-3.67,5.62-5.41,1.4-1.27,2.88-2.47,4.41-3.57,3.07-2.2,6.31-4.12,9.89-5.4,1.03-.37,2.01-.92,3.07-1.18,1.73-.43,3.5-.74,5.27-1.02,1.18-.19,2.39-.34,3.58-.31,1.56.04,3.12.29,4.68.45.03,0,.06,0,.08,0,1.46-.32,2.69.54,4.02.84,1.35.3,2.67.76,3.97,1.22.95.34,1.87.78,2.8,1.2,1.07.49,2.19.92,3.18,1.54,1.5.93,2.97,1.94,4.37,3.03,2.5,1.95,4.82,4.1,6.8,6.6.85,1.07,1.77,2.08,2.52,3.21.91,1.36,1.7,2.8,2.48,4.25.69,1.28,1.42,2.57,1.91,3.93.65,1.8,1.09,3.67,1.61,5.51.55,1.93.72,3.91,1.02,5.88.2,1.3.24,2.62.21,3.89-.05,2.43-.44,4.86-.75,7.28-.54,4.23-1.99,8.18-3.92,11.96-.35.69-.9,1.28-1.31,1.94-.67,1.1-1.21,2.29-1.97,3.33-1.07,1.47-2.28,2.83-3.46,4.22-.67.8-1.39,1.56-2.1,2.33-1.62,1.77-3.26,3.54-4.88,5.31-1.36,1.48-2.7,2.98-4.07,4.45-.7.75-1.49,1.42-2.21,2.16-.28.29-.46.69-.73,1-2.41,2.64-4.84,5.27-7.25,7.91-2.16,2.37-4.3,4.77-6.46,7.14-2.43,2.65-4.88,5.29-7.32,7.93-2.6,2.83-5.13,5.73-7.82,8.48-3.41,3.49-7.61,5.71-12.37,6.73-2.14.46-4.35.75-6.54.79-2.32.04-4.64-.37-6.88-1.1-1.04-.34-2.19-.42-2.96-1.38-.13-.16-.64.03-.87-.11-1.83-1.12-3.78-2.11-5.39-3.49-2.11-1.8-3.97-3.89-5.88-5.91-2.16-2.27-4.27-4.59-6.38-6.9-2.69-2.94-5.36-5.91-8.04-8.86-2.18-2.4-4.35-4.79-6.53-7.18-2.36-2.59-4.73-5.17-7.1-7.75-2.78-3.04-5.58-6.07-8.33-9.14-1.96-2.2-3.93-4.41-5.72-6.74-1.12-1.45-1.88-3.19-2.91-4.72-1.62-2.4-2.47-5.11-3.33-7.81-.48-1.51-.83-3.08-1.08-4.65-.43-2.71-.96-5.42-.71-8.18.18-2.01.34-4.03.69-6.01.57-3.19,1.39-6.32,2.68-9.31,1.3-3.03,2.84-5.95,4.93-8.5,1.6-1.95,3.25-3.9,5.11-5.59,2.65-2.4,5.47-4.63,8.63-6.37,2.68-1.47,5.42-2.82,8.39-3.57,1.99-.5,4.04-.76,6.06-1.11.6-.1,1.21-.15,2.04-.25Zm33.43,114.71c1.2-.11,2.03-.18,2.85-.27,2.61-.28,4.85-1.51,6.98-2.9,1.08-.7,1.95-1.73,2.86-2.66,1.52-1.54,3.03-3.11,4.49-4.7.94-1.02,1.78-2.13,2.71-3.16,1.73-1.91,3.5-3.79,5.25-5.69,1.07-1.17,2.13-2.34,3.19-3.52,1.17-1.29,2.34-2.59,3.52-3.88,1.16-1.27,2.33-2.52,3.5-3.78.95-1.03,1.91-2.05,2.84-3.09,1.2-1.34,2.37-2.7,3.58-4.03,1.13-1.23,2.32-2.39,3.44-3.63,2.1-2.34,4.16-4.73,6.26-7.08,1.64-1.83,3.37-3.58,4.98-5.44,1.93-2.22,3.36-4.77,4.39-7.5,1.02-2.68,1.78-5.43,2.01-8.33.25-3.22.26-6.43-.4-9.59-.66-3.19-1.78-6.24-3.42-9.1-1.77-3.08-4.02-5.74-6.67-8.06-2.53-2.21-5.34-4.04-8.34-5.53-3.08-1.53-6.34-2.45-9.85-2.17-1.53.12-3.1-.06-4.59.23-3.67.7-7.02,2.24-10.12,4.32-.64.43-1.18,1-1.81,1.45-.81.59-1.74,1.03-2.47,1.7-2.09,1.94-4.11,3.95-6.14,5.95-1.15,1.13-2.44,2.03-3.93,2.63-1.25.5-2.47,1.1-3.9.96-.96-.09-2.03.21-2.88-.11-1.63-.6-3.31-1.29-4.65-2.35-2.13-1.68-3.97-3.71-5.96-5.57-2.9-2.7-6.17-4.89-9.68-6.71-2.54-1.32-5.33-1.86-8.14-2.35-2.26-.39-4.47-.33-6.67.07-3.02.54-5.85,1.71-8.48,3.25-2.13,1.25-4.17,2.69-6.06,4.27-1.48,1.24-2.8,2.74-3.98,4.28-2.37,3.08-4.24,6.47-5.26,10.25-.52,1.94-.99,3.9-1.34,5.88-.18,1.02-.11,2.11-.03,3.15.16,1.98.33,3.96.66,5.91.29,1.73.75,3.44,1.45,5.06.11.26.34.47.46.73.52,1.13.98,2.28,1.54,3.39,1.47,2.93,3.74,5.28,5.91,7.68,2.81,3.11,5.72,6.14,8.56,9.22,2.04,2.21,4.02,4.47,6.05,6.7,2.01,2.2,4.06,4.37,6.07,6.58,2.91,3.2,5.77,6.43,8.68,9.63,2.6,2.86,5.24,5.69,7.88,8.52,1.88,2.02,3.69,4.11,5.73,5.96,1.21,1.09,2.7,2.01,4.23,2.57,1.58.58,3.36.64,4.7.86Z"/>
    <path class="cls-1" d="m137.95,84.69c0-1.37.04-2.72-.01-4.07-.05-1.44-.04-2.91-.34-4.31-.29-1.34-.75-2.72-1.47-3.88-.74-1.2-1.81-2.23-2.88-3.18-.54-.48-1.38-.63-2.08-.94-.63-.28-1.23-.63-1.87-.85-.31-.1-.69.02-1.04.04-.1,0-.25.03-.3-.02-.59-.66-1.37-.37-2.06-.39-1.4-.05-2.81-.04-4.22-.02-.54,0-.77-.14-.76-.73.03-2.97.01-5.95,0-8.92,0-.41.06-.71.55-.7,3.6.12,7.23-.16,10.76.86,6.51,1.89,11.21,5.84,13.92,12.12,1.4,3.24,1.97,6.63,2.03,10.13.03,1.46.07,2.92.05,4.38,0,.23-.29.64-.45.64-3.16.02-6.32-.02-9.48-.04-.08,0-.15-.06-.32-.13Z"/>
  </g>
</svg>