<svg width="9" height="10" viewBox="0 0 9 10" fill="none" xmlns="http://www.w3.org/2000/svg">
<path fill-rule="evenodd" clip-rule="evenodd" d="M3.2582 0.641724H6.3533C7.77756 0.641724 8.93255 1.86151 8.93255 3.36568V6.63443C8.93255 8.1386 7.77756 9.35839 6.3533 9.35839H3.2582C1.83394 9.35839 0.678955 8.1386 0.678955 6.63443V3.36568C0.678955 1.86151 1.83394 0.641724 3.2582 0.641724ZM6.35296 8.54137C7.34855 8.54137 8.15844 7.68604 8.15844 6.6346V3.36585C8.15844 2.3144 7.34855 1.45908 6.35296 1.45908H3.25787C2.26228 1.45908 1.45239 2.3144 1.45239 3.36585V6.6346C1.45239 7.68604 2.26228 8.54137 3.25787 8.54137H6.35296Z" fill="#669ACE"/>
<path fill-rule="evenodd" clip-rule="evenodd" d="M2.74146 5.00021C2.74146 3.79677 3.66533 2.82104 4.80484 2.82104C5.94434 2.82104 6.86822 3.79677 6.86822 5.00021C6.86822 6.20366 5.94434 7.17938 4.80484 7.17938C3.66533 7.17938 2.74146 6.20366 2.74146 5.00021ZM3.51489 5.00038C3.51489 5.7511 4.09368 6.36235 4.80452 6.36235C5.51536 6.36235 6.09414 5.7511 6.09414 5.00038C6.09414 4.24911 5.51536 3.6384 4.80452 3.6384C4.09368 3.6384 3.51489 4.24911 3.51489 5.00038Z" fill="#669ACE"/>
<ellipse cx="7.02228" cy="2.65744" rx="0.274967" ry="0.290374" fill="#669ACE"/>
</svg>
