<svg width="24" height="24" viewBox="0 0 24 24" fill="none" xmlns="http://www.w3.org/2000/svg">
<path d="M9.4937 17.4992C11.0747 17.4995 12.6204 17.0314 13.9356 16.1539C15.2511 15.2763 16.277 14.0285 16.8839 12.5681C17.4908 11.1078 17.6515 9.50027 17.3457 7.94862C17.0399 6.39697 16.2813 4.97073 15.1656 3.84998C14.05 2.72923 12.6273 1.96424 11.0773 1.65161C9.52722 1.33898 7.91931 1.49273 6.45657 2.09344C4.99384 2.69416 3.74187 3.7149 2.85873 5.02676C1.97572 6.33844 1.50102 7.88236 1.49454 9.46363C1.48756 10.5178 1.68938 11.5628 2.08838 12.5385C2.48746 13.5144 3.07589 14.4016 3.81969 15.1488C4.56349 15.896 5.44793 16.4884 6.42192 16.8918C7.39571 17.2952 8.43972 17.5016 9.4937 17.4992ZM9.4937 17.4992C9.49347 17.4992 9.49325 17.4992 9.49302 17.4992L9.49319 16.9992L9.4937 17.4992ZM11.7428 18.2182C6.59541 19.579 1.2751 16.0213 0.586196 10.7489L0.586163 10.7487C0.570285 10.6265 0.531653 10.4749 0.506715 10.377C0.504342 10.3677 0.502093 10.3589 0.5 10.3506V8.62889C0.528406 8.55064 0.552133 8.47074 0.571044 8.38962L0.575236 8.37163L0.57809 8.35339C1.11179 4.94224 2.9363 2.55612 6.09915 1.19646C6.63789 0.965802 7.19752 0.8355 7.80157 0.694856C8.05999 0.634686 8.32654 0.572623 8.60306 0.5H10.348C10.6149 0.564611 10.8698 0.618751 11.1163 0.671089C11.6482 0.784012 12.1405 0.888548 12.6269 1.07178L12.6269 1.07179L12.6299 1.07289C13.9387 1.55648 15.117 2.33832 16.0712 3.35647C17.0255 4.37463 17.7296 5.6011 18.1277 6.9387C18.5258 8.2763 18.6069 9.68826 18.3647 11.0627C18.1224 12.4371 17.5635 13.7362 16.7321 14.857L16.732 14.8569L16.7269 14.8642L16.4532 15.2471L16.1912 15.6137L16.5288 15.9123C16.6231 15.9957 16.7126 16.0727 16.7986 16.1466C16.9809 16.3034 17.1475 16.4466 17.3107 16.6091L17.3108 16.6092C19.2458 18.5337 21.1786 20.4653 23.1094 22.404L23.1163 22.4109L23.1233 22.4175C23.2267 22.5135 23.3223 22.6175 23.4093 22.7285C23.4757 22.8216 23.5073 22.9351 23.4986 23.0492L23.9971 23.0874L23.4986 23.0492C23.4897 23.1655 23.4395 23.2747 23.3571 23.3571C23.2747 23.4395 23.1655 23.4897 23.0494 23.4986C22.9355 23.5073 22.8223 23.4758 22.7293 23.4096C22.6042 23.311 22.4863 23.2036 22.3766 23.088L22.3767 23.0879L22.3674 23.0786C20.3187 21.0311 18.2703 18.9823 16.2224 16.9323C16.1446 16.8309 16.0778 16.7214 16.0234 16.6056L15.758 16.0413L15.2649 16.423C14.1063 17.3196 12.9851 17.8933 11.7441 18.2179L11.7428 18.2182Z" fill="white" fill-opacity="0.56" stroke="#C4C4C4"/>
</svg>
