<svg width="16" height="17" viewBox="0 0 16 17" fill="none" xmlns="http://www.w3.org/2000/svg">
<path d="M8 0.5C6.41775 0.5 4.87103 0.969192 3.55544 1.84824C2.23985 2.72729 1.21447 3.97672 0.608967 5.43853C0.00346625 6.90034 -0.15496 8.50887 0.153721 10.0607C0.462403 11.6126 1.22433 13.038 2.34315 14.1569C3.46197 15.2757 4.88743 16.0376 6.43928 16.3463C7.99113 16.655 9.59966 16.4965 11.0615 15.891C12.5233 15.2855 13.7727 14.2602 14.6518 12.9446C15.5308 11.629 16 10.0822 16 8.5C15.9978 6.37895 15.1542 4.34542 13.6544 2.84562C12.1546 1.34581 10.121 0.50224 8 0.5ZM3.85231 13.8462C4.29749 13.1499 4.91078 12.5769 5.63563 12.18C6.36049 11.7832 7.1736 11.5751 8 11.5751C8.8264 11.5751 9.63951 11.7832 10.3644 12.18C11.0892 12.5769 11.7025 13.1499 12.1477 13.8462C10.9618 14.7684 9.50233 15.2692 8 15.2692C6.49768 15.2692 5.03821 14.7684 3.85231 13.8462ZM5.53846 7.88461C5.53846 7.39777 5.68283 6.92186 5.95331 6.51706C6.22379 6.11226 6.60822 5.79676 7.05801 5.61045C7.5078 5.42414 8.00273 5.37539 8.48022 5.47037C8.95772 5.56535 9.39632 5.79979 9.74057 6.14404C10.0848 6.4883 10.3193 6.9269 10.4142 7.40439C10.5092 7.88188 10.4605 8.37682 10.2742 8.8266C10.0879 9.27639 9.77236 9.66083 9.36756 9.93131C8.96276 10.2018 8.48685 10.3462 8 10.3462C7.34716 10.3462 6.72106 10.0868 6.25943 9.62518C5.7978 9.16356 5.53846 8.53745 5.53846 7.88461ZM13.0585 12.9931C12.3721 11.9985 11.4071 11.2291 10.2846 10.7815C10.8876 10.3066 11.3275 9.65568 11.5433 8.91915C11.7591 8.18262 11.7401 7.39715 11.4888 6.67196C11.2375 5.94677 10.7665 5.31791 10.1412 4.87284C9.51592 4.42776 8.7675 4.1886 8 4.1886C7.23251 4.1886 6.48409 4.42776 5.85882 4.87284C5.23355 5.31791 4.76252 5.94677 4.51122 6.67196C4.25993 7.39715 4.24086 8.18262 4.45667 8.91915C4.67249 9.65568 5.11245 10.3066 5.71539 10.7815C4.59294 11.2291 3.62787 11.9985 2.94154 12.9931C2.07429 12.0178 1.50744 10.8126 1.30927 9.52269C1.11109 8.23274 1.29004 6.91299 1.82455 5.72238C2.35907 4.53177 3.22637 3.52106 4.32201 2.81195C5.41765 2.10284 6.69491 1.72557 8 1.72557C9.30509 1.72557 10.5824 2.10284 11.678 2.81195C12.7736 3.52106 13.6409 4.53177 14.1754 5.72238C14.71 6.91299 14.8889 8.23274 14.6907 9.52269C14.4926 10.8126 13.9257 12.0178 13.0585 12.9931Z" fill="white"/>
</svg>
