<svg width="16" height="16" viewBox="0 0 16 16" fill="none" xmlns="http://www.w3.org/2000/svg">
<path d="M11.0731 2.46344C11.0731 2.3001 11.138 2.14346 11.2535 2.02796C11.369 1.91247 11.5257 1.84758 11.689 1.84758H12.9207V0.615866C12.9207 0.452531 12.9856 0.295885 13.1011 0.180389C13.2166 0.0648935 13.3732 8.74981e-06 13.5366 8.74981e-06C13.6999 8.74981e-06 13.8565 0.0648935 13.972 0.180389C14.0875 0.295885 14.1524 0.452531 14.1524 0.615866V1.84758H15.3841C15.5475 1.84758 15.7041 1.91247 15.8196 2.02796C15.9351 2.14346 16 2.3001 16 2.46344C16 2.62678 15.9351 2.78342 15.8196 2.89892C15.7041 3.01441 15.5475 3.0793 15.3841 3.0793H14.1524V4.31101C14.1524 4.47435 14.0875 4.63099 13.972 4.74649C13.8565 4.86199 13.6999 4.92687 13.5366 4.92687C13.3732 4.92687 13.2166 4.86199 13.1011 4.74649C12.9856 4.63099 12.9207 4.47435 12.9207 4.31101V3.0793H11.689C11.5257 3.0793 11.369 3.01441 11.2535 2.89892C11.138 2.78342 11.0731 2.62678 11.0731 2.46344ZM15.8891 6.67283C16.1705 8.34531 15.9131 10.0639 15.154 11.5806C14.3949 13.0972 13.1735 14.3334 11.666 15.1105C10.1586 15.8877 8.4432 16.1658 6.76747 15.9045C5.09173 15.6432 3.54239 14.8561 2.34315 13.6568C1.14391 12.4576 0.35682 10.9083 0.0955249 9.23253C-0.16577 7.5568 0.112252 5.84138 0.889449 4.33395C1.66664 2.82653 2.9028 1.6051 4.41943 0.846023C5.93606 0.0869484 7.65469 -0.170495 9.32717 0.110863C9.48704 0.139135 9.62928 0.229387 9.72294 0.361987C9.81661 0.494588 9.85413 0.65881 9.82734 0.818932C9.80055 0.979053 9.71162 1.12212 9.5799 1.21701C9.44817 1.3119 9.2843 1.35095 9.12394 1.32564C8.15253 1.16223 7.15717 1.21246 6.20714 1.47284C5.25712 1.73321 4.37524 2.19749 3.62288 2.83334C2.87053 3.46919 2.26577 4.26135 1.85069 5.15469C1.43561 6.04804 1.22019 7.0211 1.21941 8.00616C1.21795 9.6645 1.82745 11.2653 2.93149 12.5027C3.61835 11.5074 4.58416 10.7373 5.70747 10.2895C5.10407 9.8142 4.66377 9.16273 4.44779 8.42563C4.23181 7.68854 4.25089 6.90246 4.50238 6.17671C4.75387 5.45096 5.22527 4.82162 5.85101 4.37621C6.47676 3.93079 7.22576 3.69144 7.99384 3.69144C8.76193 3.69144 9.51092 3.93079 10.1367 4.37621C10.7624 4.82162 11.2338 5.45096 11.4853 6.17671C11.7368 6.90246 11.7559 7.68854 11.5399 8.42563C11.3239 9.16273 10.8836 9.8142 10.2802 10.2895C11.4035 10.7373 12.3693 11.5074 13.0562 12.5027C14.1602 11.2653 14.7697 9.6645 14.7683 8.00616C14.7683 7.62751 14.7369 7.24951 14.6744 6.87606C14.6602 6.79595 14.662 6.71382 14.6798 6.63443C14.6975 6.55503 14.7308 6.47994 14.7778 6.41349C14.8247 6.34704 14.8844 6.29055 14.9533 6.24728C15.0222 6.20401 15.0989 6.17482 15.1792 6.1614C15.2594 6.14797 15.3415 6.15058 15.4208 6.16907C15.5 6.18756 15.5748 6.22156 15.6408 6.26911C15.7068 6.31666 15.7627 6.37682 15.8054 6.44612C15.848 6.51541 15.8765 6.59246 15.8891 6.67283ZM7.99384 9.85373C8.48106 9.85373 8.95734 9.70925 9.36245 9.43857C9.76756 9.16788 10.0833 8.78315 10.2698 8.33301C10.4562 7.88288 10.505 7.38757 10.4099 6.90971C10.3149 6.43185 10.0803 5.99291 9.73575 5.64839C9.39123 5.30388 8.95229 5.06926 8.47443 4.9742C7.99657 4.87915 7.50126 4.92794 7.05113 5.11439C6.60099 5.30084 6.21626 5.61658 5.94557 6.02169C5.67489 6.4268 5.53041 6.90308 5.53041 7.3903C5.53041 8.04364 5.78995 8.67023 6.25193 9.13221C6.71392 9.59419 7.3405 9.85373 7.99384 9.85373ZM7.99384 14.7806C9.49758 14.7821 10.9587 14.2808 12.1447 13.3564C11.6992 12.6596 11.0854 12.0862 10.36 11.689C9.63461 11.2918 8.82088 11.0836 7.99384 11.0836C7.1668 11.0836 6.35307 11.2918 5.62766 11.689C4.90224 12.0862 4.28848 12.6596 3.84296 13.3564C5.02902 14.2808 6.4901 14.7821 7.99384 14.7806Z" fill="#EBEBEB"/>
</svg>
