<svg width="19" height="19" viewBox="0 0 19 19" fill="none" xmlns="http://www.w3.org/2000/svg">
<g clip-path="url(#clip0_1468_347)">
<path d="M18.0343 7.14056L12.4738 6.33255L9.98712 1.29399C9.88753 1.09226 9.69376 0.991211 9.5 0.991211L9.50072 15.4854L14.4734 18.0999C14.8721 18.3093 15.3375 17.971 15.2615 17.5273L14.3118 11.989L18.3352 8.067C18.6579 7.75263 18.4797 7.20539 18.0343 7.14056Z" fill="#FFB820"/>
<path d="M13.1442 11.6098C13.1442 11.6098 14.0018 16.6089 14.0047 16.6255C14.0018 16.6252 9.5699 15.5028 9.50073 15.4854C9.5 15.485 4.52663 18.0999 4.52663 18.0999C4.12788 18.3093 3.66249 17.971 3.73854 17.5273L4.68816 11.989L0.664773 8.067C0.342076 7.75263 0.520265 7.20539 0.965739 7.14056L6.52619 6.33255L9.01288 1.29399C9.11248 1.09226 9.30624 0.991211 9.5 0.991211L11.7524 7.32563L16.7888 8.05758L13.1442 11.6098Z" fill="#FFD06A"/>
</g>
<defs>
<clipPath id="clip0_1468_347">
<rect width="18" height="18" fill="white" transform="translate(0.5 0.577148)"/>
</clipPath>
</defs>
</svg>
