<svg width="9" height="8" viewBox="0 0 9 8" fill="none" xmlns="http://www.w3.org/2000/svg">
<path d="M8.37981 1.27227C8.07288 1.41446 7.74584 1.50871 7.40486 1.55447C7.75564 1.33329 8.02336 0.985712 8.14923 0.566767C7.82218 0.772698 7.46109 0.918158 7.07626 0.999332C6.76572 0.65012 6.32312 0.433838 5.84029 0.433838C4.9035 0.433838 4.14933 1.23686 4.14933 2.2213C4.14933 2.36294 4.16068 2.49914 4.18854 2.6288C2.78181 2.55635 1.53707 1.8443 0.700877 0.759623C0.554892 1.02712 0.469261 1.33329 0.469261 1.66289C0.469261 2.28177 0.771033 2.83038 1.22085 3.14799C0.949001 3.14254 0.682307 3.05919 0.456364 2.92789C0.456364 2.93334 0.456364 2.94042 0.456364 2.94751C0.456364 3.8159 1.04289 4.53721 1.81202 4.70337C1.67429 4.74314 1.52417 4.76221 1.36839 4.76221C1.26006 4.76221 1.1507 4.75567 1.04804 4.7317C1.26728 5.43938 1.88939 5.95966 2.62912 5.97655C2.05343 6.45215 1.32248 6.73871 0.531163 6.73871C0.392399 6.73871 0.25931 6.73217 0.126221 6.7142C0.87575 7.22467 1.76404 7.51613 2.72198 7.51613C5.83564 7.51613 7.53795 4.79217 7.53795 2.43104C7.53795 2.35205 7.53537 2.27578 7.53176 2.20005C7.86758 1.94836 8.14974 1.63401 8.37981 1.27227Z" fill="#669ACE"/>
</svg>
